HIERARCHY
ROOT hip
{
  OFFSET 0 0 0
  CHANNELS 6 Xposition Yposition Zposition Zrotation Yrotation Xrotation
  JOINT abdomen
  {
    OFFSET 0 20.6881 -0.73152
    CHANNELS 3 Zrotation Xrotation Yrotation
    JOINT chest
    {
      OFFSET 0 11.7043 -0.48768
      CHANNELS 3 Zrotation Xrotation Yrotation
      JOINT neck
      {
        OFFSET 0 22.1894 -2.19456
        CHANNELS 3 Zrotation Xrotation Yrotation
        JOINT head
        {
          OFFSET -0.24384 7.07133 1.2192
          CHANNELS 3 Zrotation Xrotation Yrotation
          JOINT leftEye
          {
            OFFSET 4.14528 8.04674 8.04672
            CHANNELS 3 Zrotation Xrotation Yrotation
            End Site
            {
              OFFSET 1 0 0
            }
          }
          JOINT rightEye
          {
            OFFSET -3.6576 8.04674 8.04672
            CHANNELS 3 Zrotation Xrotation Yrotation
            End Site
            {
              OFFSET 1 0 0
            }
          }
        }
      }
      JOINT rCollar
      {
        OFFSET -2.68224 19.2634 -4.8768
        CHANNELS 3 Zrotation Xrotation Yrotation
        JOINT rShldr
        {
          OFFSET -8.77824 -1.95073 1.46304
          CHANNELS 3 Zrotation Xrotation Yrotation
          JOINT rForeArm
          {
            OFFSET -28.1742 -1.7115 0.48768
            CHANNELS 3 Zrotation Xrotation Yrotation
            JOINT rHand
            {
              OFFSET -22.5879 0.773209 7.07136
              CHANNELS 3 Zrotation Xrotation Yrotation
              JOINT rThumb1
              {
                OFFSET -1.2192 -0.487915 3.41376
                CHANNELS 3 Zrotation Xrotation Yrotation
                JOINT rThumb2
                {
                  OFFSET -3.37035 -0.52449 3.41376
                  CHANNELS 3 Zrotation Xrotation Yrotation
                  End Site
                  {
                    OFFSET -1.78271 -1.18214 1.43049
                  }
                }
              }
              JOINT rIndex1
              {
                OFFSET -7.75947 0.938293 5.60832
                CHANNELS 3 Zrotation Xrotation Yrotation
                JOINT rIndex2
                {
                  OFFSET -2.54057 -0.884171 1.56538
                  CHANNELS 3 Zrotation Xrotation Yrotation
                  End Site
                  {
                    OFFSET -1.62519 -0.234802 1.16502
                  }
                }
              }
              JOINT rMid1
              {
                OFFSET -8.24714 1.18213 3.41376
                CHANNELS 3 Zrotation Xrotation Yrotation
                JOINT rMid2
                {
                  OFFSET -3.10165 -0.590103 1.0647
                  CHANNELS 3 Zrotation Xrotation Yrotation
                  End Site
                  {
                    OFFSET -2.48547 -0.328903 0.83742
                  }
                }
              }
              JOINT rRing1
              {
                OFFSET -8.82822 0.546677 1.51678
                CHANNELS 3 Zrotation Xrotation Yrotation
                JOINT rRing2
                {
                  OFFSET -2.60934 -0.819778 -0.0198488
                  CHANNELS 3 Zrotation Xrotation Yrotation
                  End Site
                  {
                    OFFSET -2.33842 -0.294052 0.168128
                  }
                }
              }
              JOINT rPinky1
              {
                OFFSET -8.27202 -0.0477905 -0.4584
                CHANNELS 3 Zrotation Xrotation Yrotation
                JOINT rPinky2
                {
                  OFFSET -1.82734 -0.647385 -0.700984
                  CHANNELS 3 Zrotation Xrotation Yrotation
                  End Site
                  {
                    OFFSET -1.69225 -0.51767 -0.607171
                  }
                }
              }
            }
          }
        }
      }
      JOINT lCollar
      {
        OFFSET 2.68224 19.2634 -4.8768
        CHANNELS 3 Zrotation Xrotation Yrotation
        JOINT lShldr
        {
          OFFSET 8.77824 -1.95073 1.46304
          CHANNELS 3 Zrotation Xrotation Yrotation
          JOINT lForeArm
          {
            OFFSET 28.1742 -1.7115 0.48768
            CHANNELS 3 Zrotation Xrotation Yrotation
            JOINT lHand
            {
              OFFSET 22.5879 0.773209 7.07136
              CHANNELS 3 Zrotation Xrotation Yrotation
              JOINT lThumb1
              {
                OFFSET 1.2192 -0.487915 3.41376
                CHANNELS 3 Zrotation Xrotation Yrotation
                JOINT lThumb2
                {
                  OFFSET 3.37035 -0.52449 3.41376
                  CHANNELS 3 Zrotation Xrotation Yrotation
                  End Site
                  {
                    OFFSET 1.78271 -1.18214 1.43049
                  }
                }
              }
              JOINT lIndex1
              {
                OFFSET 7.75947 0.938293 5.60832
                CHANNELS 3 Zrotation Xrotation Yrotation
                JOINT lIndex2
                {
                  OFFSET 2.54057 -0.884171 1.56538
                  CHANNELS 3 Zrotation Xrotation Yrotation
                  End Site
                  {
                    OFFSET 1.62519 -0.234802 1.16502
                  }
                }
              }
              JOINT lMid1
              {
                OFFSET 8.24714 1.18213 3.41376
                CHANNELS 3 Zrotation Xrotation Yrotation
                JOINT lMid2
                {
                  OFFSET 3.10165 -0.590103 1.0647
                  CHANNELS 3 Zrotation Xrotation Yrotation
                  End Site
                  {
                    OFFSET 2.48547 -0.328903 0.83742
                  }
                }
              }
              JOINT lRing1
              {
                OFFSET 8.82822 0.546677 1.51678
                CHANNELS 3 Zrotation Xrotation Yrotation
                JOINT lRing2
                {
                  OFFSET 2.60934 -0.819778 -0.0198488
                  CHANNELS 3 Zrotation Xrotation Yrotation
                  End Site
                  {
                    OFFSET 2.33842 -0.294052 0.168128
                  }
                }
              }
              JOINT lPinky1
              {
                OFFSET 8.27202 -0.0477905 -0.4584
                CHANNELS 3 Zrotation Xrotation Yrotation
                JOINT lPinky2
                {
                  OFFSET 1.82734 -0.647385 -0.700984
                  CHANNELS 3 Zrotation Xrotation Yrotation
                  End Site
                  {
                    OFFSET 1.69225 -0.51767 -0.607171
                  }
                }
              }
            }
          }
        }
      }
    }
  }
  JOINT rButtock
  {
    OFFSET -8.77824 4.35084 1.2192
    CHANNELS 3 Zrotation Xrotation Yrotation
    JOINT rThigh
    {
      OFFSET 0 -1.70687 -2.19456
      CHANNELS 3 Zrotation Xrotation Yrotation
      JOINT rShin
      {
        OFFSET 0 -36.8199 0.73152
        CHANNELS 3 Zrotation Xrotation Yrotation
        JOINT rFoot
        {
          OFFSET 0.73152 -45.1104 -5.12064
          CHANNELS 3 Zrotation Xrotation Yrotation
          End Site
          {
            OFFSET -1.1221 -3.69964 12.103
          }
        }
      }
    }
  }
  JOINT lButtock
  {
    OFFSET 8.77824 4.35084 1.2192
    CHANNELS 3 Zrotation Xrotation Yrotation
    JOINT lThigh
    {
      OFFSET 0 -1.70687 -2.19456
      CHANNELS 3 Zrotation Xrotation Yrotation
      JOINT lShin
      {
        OFFSET 0 -36.8199 0.73152
        CHANNELS 3 Zrotation Xrotation Yrotation
        JOINT lFoot
        {
          OFFSET -0.73152 -45.1104 -5.12064
          CHANNELS 3 Zrotation Xrotation Yrotation
          End Site
          {
            OFFSET 1.1221 -3.69964 12.103
          }
        }
      }
    }
  }
}
MOTION
Frames:	4
Frame Time:	0.00833333
6.67515 23.5031 2.01342 -3.0561 4.5253 -61.6976 2.29533 67.4259 -7.39869 2.22099 -8.72956 -1.31444 -4.91964 7.72397 -3.5332 8.69618 -15.3658 -5.10375 -0.0 0.0 0.0 -0.0 0.0 0.0 3.82021e-14 7.51406e-13 1.95803e-14 29.9081 23.6995 53.4334 -27.2386 -27.1697 62.7436 -0.0254304 -4.54751 -0.64047 -2.72097e-09 -9.85534e-09 -1.30048e-09 -4.69209e-09 -1.70154e-08 -2.25695e-09 -2.72096e-09 -9.85534e-09 -1.30049e-09 7.73091 5.47488 0.417314 -2.72097e-09 -9.85535e-09 -1.30049e-09 2.90554 0.965183 0.102902 -2.72097e-09 -9.85535e-09 -1.30048e-09 10.2786 0.731801 0.0259123 -2.72097e-09 -9.85535e-09 -1.30047e-09 2.22167 -0.733487 -0.20892 3.82332e-14 7.51406e-13 1.93815e-14 -34.9399 22.1827 -52.1631 26.3978 -24.5013 -58.4832 0.000989934 -0.89837 0.126268 3.0363e-09 -1.06675e-08 9.87661e-10 5.24497e-09 -1.84199e-08 1.70292e-09 3.03629e-09 -1.06675e-08 9.87677e-10 -7.73091 5.47488 -0.417314 3.0363e-09 -1.06675e-08 9.87667e-10 -2.90554 0.965183 -0.102902 3.03629e-09 -1.06675e-08 9.87663e-10 -10.2786 0.731801 -0.0259123 3.03629e-09 -1.06675e-08 9.87658e-10 -2.22167 -0.733487 0.20892 -2.03217e-16 0.0 -3.88251e-19 -62.2278 -60.8277 -63.6198 3.54149 40.627 24.182 -179.883 2.51153 -168.394 2.03217e-16 0.0 3.88251e-19 41.9028 -71.6915 45.3095 -3.3381 43.9789 -21.9707 -177.838 0.502003 145.845
6.64375 23.4643 2.12434 -3.165 4.3257 -61.3557 2.51159 67.18 -7.72681 2.28184 -8.72156 -1.3616 -4.96298 7.52731 -3.57261 8.72836 -15.4602 -5.14826 -0.0 0.0 0.0 -0.0 0.0 0.0 5.23919e-14 4.9712e-13 1.03877e-14 30.0223 23.5931 53.3765 -27.2712 -27.2899 62.936 -0.0344539 -5.23001 -0.737124 -1.63205e-09 -6.33297e-09 -9.41822e-10 -2.81258e-09 -1.09314e-08 -1.63335e-09 -1.63204e-09 -6.33297e-09 -9.41827e-10 7.73091 5.47488 0.417314 -1.63205e-09 -6.33297e-09 -9.41826e-10 2.90554 0.965183 0.102902 -1.63204e-09 -6.33297e-09 -9.4182e-10 10.2786 0.731801 0.0259123 -1.63205e-09 -6.33297e-09 -9.41813e-10 2.22167 -0.733487 -0.20892 5.2413e-14 4.9712e-13 1.01664e-14 -35.482 22.0256 -51.7943 26.4844 -24.747 -58.879 0.00115439 -0.971511 0.136551 1.77007e-09 -6.63941e-09 7.51025e-10 3.05691e-09 -1.14629e-08 1.29515e-09 1.77007e-09 -6.6394e-09 7.51039e-10 -7.73091 5.47488 -0.417314 1.77007e-09 -6.63941e-09 7.51032e-10 -2.90554 0.965183 -0.102902 1.77006e-09 -6.6394e-09 7.51027e-10 -10.2786 0.731801 -0.0259123 1.77007e-09 -6.6394e-09 7.51021e-10 -2.22167 -0.733487 0.20892 -2.03217e-16 0.0 -3.88251e-19 -63.1988 -60.9067 -64.6344 3.39706 40.466 23.3674 -179.789 2.71908 -169.212 2.03217e-16 0.0 3.88251e-19 42.7425 -72.0632 46.2575 -1.73072 42.7033 -17.5541 -179.364 2.47451 151.257
6.64463 23.4239 2.21845 -3.18 4.2831 -60.953 2.77058 67.0359 -8.06866 2.33955 -8.71914 -1.40393 -5.05847 7.32281 -3.61221 8.82884 -15.5944 -5.17287 -0.0 0.0 0.0 -0.0 0.0 0.0 5.33964e-14 4.01792e-14 6.14058e-15 30.0896 23.4593 53.3712 -27.3008 -27.3998 63.1107 -0.0420325 -5.80446 -0.818597 1.99541e-10 -3.91558e-10 -3.51253e-10 3.4814e-10 -6.70818e-10 -6.06494e-10 1.99544e-10 -3.9156e-10 -3.51259e-10 7.73091 5.47488 0.417314 1.9954e-10 -3.9156e-10 -3.51258e-10 2.90554 0.965183 0.102902 1.99546e-10 -3.91558e-10 -3.51252e-10 10.2786 0.731801 0.0259123 1.99541e-10 -3.91557e-10 -3.51245e-10 2.22167 -0.733487 -0.20892 5.33917e-14 4.01795e-14 5.8921e-15 -35.9456 21.8261 -51.464 26.566 -24.9834 -59.2557 0.00163718 -1.15632 0.162533 -3.06551e-10 1.84905e-10 2.67485e-10 -5.31263e-10 3.22652e-10 4.61645e-10 -3.06555e-10 1.84909e-10 2.67497e-10 -7.73091 5.47488 -0.417314 -3.0655e-10 1.84907e-10 2.67492e-10 -2.90554 0.965183 -0.102902 -3.06561e-10 1.84909e-10 2.67486e-10 -10.2786 0.731801 -0.0259123 -3.06552e-10 1.84909e-10 2.67479e-10 -2.22167 -0.733487 0.20892 -2.03217e-16 0.0 -3.88251e-19 -63.9308 -60.9398 -65.4449 3.28385 40.3529 22.6807 -179.712 2.92038 -169.889 2.03217e-16 0.0 3.88251e-19 43.5166 -72.3422 47.0871 -1.33524 42.598 -15.1828 -179.641 2.55552 153.986
6.68725 23.3732 2.30535 -3.1353 4.4591 -60.5082 3.00342 66.9362 -8.36521 2.38832 -8.71257 -1.43929 -5.16195 7.14504 -3.65412 8.93945 -15.7687 -5.19882 -0.0 0.0 0.0 -0.0 0.0 0.0 4.57355e-14 -4.40231e-13 6.24036e-15 30.1642 23.3166 53.3757 -27.3285 -27.5041 63.2758 -0.0486061 -6.28083 -0.886279 2.05807e-09 5.72018e-09 2.88951e-10 3.55469e-09 9.88268e-09 5.06403e-10 2.05807e-09 5.72018e-09 2.88943e-10 7.73091 5.47488 0.417314 2.05807e-09 5.72018e-09 2.88944e-10 2.90554 0.965183 0.102902 2.05808e-09 5.72019e-09 2.88951e-10 10.2786 0.731801 0.0259123 2.05807e-09 5.72019e-09 2.88957e-10 2.22167 -0.733487 -0.20892 4.56976e-14 -4.4023e-13 5.96471e-15 -36.3354 21.6215 -51.1756 26.6412 -25.2058 -59.6099 0.00241816 -1.39829 0.196558 -2.38863e-09 7.21766e-09 -3.13353e-10 -4.12842e-09 1.24675e-08 -5.40194e-10 -2.38864e-09 7.21767e-09 -3.13345e-10 -7.73091 5.47488 -0.417314 -2.38863e-09 7.21766e-09 -3.13346e-10 -2.90554 0.965183 -0.102902 -2.38864e-09 7.21767e-09 -3.13352e-10 -10.2786 0.731801 -0.0259123 -2.38863e-09 7.21767e-09 -3.13361e-10 -2.22167 -0.733487 0.20892 -2.03217e-16 0.0 -3.88251e-19 -64.5353 -60.9633 -66.1436 3.19283 40.2587 22.1025 -179.647 3.10445 -170.453 2.03217e-16 0.0 3.88251e-19 44.2706 -72.5671 47.8688 -1.56678 43.029 -13.7065 -179.258 1.79967 155.469
